<?xml version="1.0" encoding="utf-8"?>
<!-- Generator: Adobe Illustrator 15.0.2, SVG Export Plug-In . SVG Version: 6.00 Build 0)  -->
<!DOCTYPE svg PUBLIC "-//W3C//DTD SVG 1.1//EN" "http://www.w3.org/Graphics/SVG/1.1/DTD/svg11.dtd">
<svg version="1.1"
	 id="Слой_1" xmlns:cc="http://creativecommons.org/ns#" xmlns:rdf="http://www.w3.org/1999/02/22-rdf-syntax-ns#" xmlns:sodipodi="http://sodipodi.sourceforge.net/DTD/sodipodi-0.dtd" xmlns:inkscape="http://www.inkscape.org/namespaces/inkscape" xmlns:dc="http://purl.org/dc/elements/1.1/" xmlns:svg="http://www.w3.org/2000/svg"
	 xmlns="http://www.w3.org/2000/svg" xmlns:xlink="http://www.w3.org/1999/xlink" x="0px" y="0px" width="170.08px"
	 height="170.08px" viewBox="0 0 170.08 170.08" enable-background="new 0 0 170.08 170.08" xml:space="preserve">
<g transform="translate(0,-952.36218)">
	<path fill="#1E8CBF" d="M129.532,992.771c-3.185,0.099-6.207,1.509-8.431,3.932c-19.129,20.352-33.878,37.417-51.405,56.468
		l-17.816-15.998c-5.035-4.808-12.788-4.372-17.316,0.973c-4.529,5.345-4.119,13.574,0.917,18.382
		c0.183,0.177,0.371,0.346,0.563,0.508l26.565,23.861c4.874,4.378,12.096,4.055,16.604-0.747
		c22.049-23.457,37.716-42.157,59.261-65.076c4.834-5.035,4.907-13.276,0.164-18.407
		C136.246,994.079,132.946,992.667,129.532,992.771z"/>
</g>
</svg>
