<?xml version="1.0" encoding="utf-8"?>
<!-- Generator: Adobe Illustrator 15.0.2, SVG Export Plug-In . SVG Version: 6.00 Build 0)  -->
<!DOCTYPE svg PUBLIC "-//W3C//DTD SVG 1.1//EN" "http://www.w3.org/Graphics/SVG/1.1/DTD/svg11.dtd">
<svg version="1.1" id="Слой_1" xmlns="http://www.w3.org/2000/svg" xmlns:xlink="http://www.w3.org/1999/xlink" x="0px" y="0px"
	 width="170.08px" height="170.08px" viewBox="0 0 170.08 170.08" enable-background="new 0 0 170.08 170.08" xml:space="preserve">
<g>
	<path fill="#C8C8C9" d="M127.694,46.33H42.519c-5.851,0-10.477,4.762-10.477,10.477v56.467c0,5.851,4.762,10.477,10.477,10.477
		h85.04c5.851,0,10.477-4.762,10.477-10.477V56.807C138.171,51.092,133.409,46.33,127.694,46.33z M127.967,65.106l-20.954,21.09l0,0
		l16.872,16.872c1.089,1.088,1.089,2.721,0,3.81c-0.544,0.544-1.225,0.816-1.905,0.816c-0.68,0-1.36-0.272-1.904-0.816
		l-17.008-16.871l0,0l-10.342,10.34c-2.041,2.177-4.898,3.13-7.619,3.13c-2.721,0-5.579-1.088-7.62-3.13L67.282,89.733
		l-18.369,18.505c-0.544,0.408-1.225,0.681-1.905,0.681c-0.68,0-1.36-0.272-1.905-0.816c-1.088-1.089-1.088-2.722,0-3.81
		l18.369-18.368l0,0L42.246,63.882c-1.088-1.088-0.952-2.857,0.136-3.81c1.088-1.089,2.857-0.953,3.81,0.136l35.105,36.465
		c2.041,2.041,5.442,2.041,7.483,0l35.377-35.376c1.088-1.089,2.721-1.089,3.81,0C129.056,62.385,129.056,64.018,127.967,65.106z"/>
</g>
</svg>
