<?xml version="1.0" encoding="utf-8"?>
<!-- Generator: Adobe Illustrator 15.0.2, SVG Export Plug-In . SVG Version: 6.00 Build 0)  -->
<!DOCTYPE svg PUBLIC "-//W3C//DTD SVG 1.1//EN" "http://www.w3.org/Graphics/SVG/1.1/DTD/svg11.dtd">
<svg version="1.1" id="Слой_1" xmlns="http://www.w3.org/2000/svg" xmlns:xlink="http://www.w3.org/1999/xlink" x="0px" y="0px"
	 width="170.08px" height="170.08px" viewBox="0 0 170.08 170.08" enable-background="new 0 0 170.08 170.08" xml:space="preserve">
<g>
	<path fill="#C8C8C9" d="M6322.532,2871.775v-2.378c0-3.33-5.971-4.758-11.584-4.758s-11.584,1.549-11.584,4.758v2.378
		c0,2.14,0.836,4.279,2.387,5.825l5.973,5.828c0.359,0.355,0.477,0.714,0.477,1.187v7.61c0,0.478,0.24,0.833,0.717,0.953
		l3.466,1.068c0.596,0.118,1.191-0.238,1.191-0.95v-8.561c0-0.477,0.241-0.835,0.479-1.192l6.09-5.943
		C6321.697,2876.055,6322.532,2873.915,6322.532,2871.775z M6310.948,2871.654c-5.732,0-8.836-1.544-8.957-2.14l0,0
		c0.121-0.593,3.225-2.14,8.957-2.14c5.731,0,8.717,1.547,8.956,2.14C6319.667,2870.11,6316.68,2871.654,6310.948,2871.654z"/>
	<path fill="#C8C8C9" d="M6316.919,2883.901c-0.717,0-1.195,0.478-1.195,1.191c0,0.713,0.479,1.189,1.195,1.189h5.135
		c0.717,0,1.194-0.477,1.194-1.189c0-0.714-0.478-1.191-1.194-1.191H6316.919z"/>
	<path fill="#C8C8C9" d="M6322.056,2887.944h-5.137c-0.717,0-1.193,0.478-1.193,1.189c0,0.713,0.477,1.191,1.193,1.191h5.137
		c0.715,0,1.192-0.479,1.192-1.191C6323.248,2888.422,6322.771,2887.944,6322.056,2887.944z"/>
	<path fill="#C8C8C9" d="M6322.056,2891.87h-5.137c-0.717,0-1.193,0.475-1.193,1.188s0.477,1.188,1.193,1.188h5.137
		c0.715,0,1.192-0.475,1.192-1.188C6323.248,2892.465,6322.771,2891.87,6322.056,2891.87z"/>
</g>
<path fill="#C8C8C9" d="M127.343,62.742h-0.357l0,0c0-23.067-18.871-41.856-42.038-41.856c-23.167,0-42.038,18.789-42.038,41.856
	l0,0h-0.357c-5.853,0-10.511,4.755-10.511,10.462v50.061c0,5.826,4.777,10.463,10.511,10.463h84.79
	c5.85,0,10.509-4.756,10.509-10.463V73.204C137.972,67.378,133.192,62.742,127.343,62.742z M93.784,113.87
	c0.238,0.832,0,1.781-0.479,2.498c-0.596,0.713-1.432,1.07-2.267,1.07H78.855c-0.955,0-1.671-0.357-2.268-1.07
	c-0.597-0.717-0.717-1.666-0.479-2.498l3.942-15.102c-3.343-1.783-5.615-5.231-5.615-9.273c0-5.827,4.78-10.463,10.511-10.463
	c5.731,0,10.508,4.755,10.508,10.463c0,4.042-2.267,7.49-5.613,9.273L93.784,113.87z M112.651,62.742H57.24l0,0
	c0-15.221,12.42-27.586,27.707-27.586C100.233,35.155,112.651,47.521,112.651,62.742L112.651,62.742z"/>
</svg>
